<?xml version="1.0" encoding="UTF-8" standalone="no"?>
<svg
   xmlns:dc="http://purl.org/dc/elements/1.1/"
   xmlns:cc="http://creativecommons.org/ns#"
   xmlns:rdf="http://www.w3.org/1999/02/22-rdf-syntax-ns#"
   xmlns:svg="http://www.w3.org/2000/svg"
   xmlns="http://www.w3.org/2000/svg"
   xmlns:sodipodi="http://sodipodi.sourceforge.net/DTD/sodipodi-0.dtd"
   xmlns:inkscape="http://www.inkscape.org/namespaces/inkscape"
   width="135.46666mm"
   height="135.51427mm"
   viewBox="0 0 135.46666 135.51427"
   version="1.1"
   id="svg8"
   inkscape:version="1.0.1 (3bc2e813f5, 2020-09-07)"
   sodipodi:docname="material.svg">
  <defs
     id="defs2" />
  <sodipodi:namedview
     id="base"
     pagecolor="#ffffff"
     bordercolor="#666666"
     borderopacity="1.0"
     inkscape:pageopacity="0.0"
     inkscape:pageshadow="2"
     inkscape:zoom="0.35"
     inkscape:cx="255.99999"
     inkscape:cy="184.75138"
     inkscape:document-units="mm"
     inkscape:current-layer="layer1"
     inkscape:document-rotation="0"
     showgrid="false"
     fit-margin-top="0"
     fit-margin-left="0"
     fit-margin-right="0"
     fit-margin-bottom="0"
     inkscape:window-width="1481"
     inkscape:window-height="1034"
     inkscape:window-x="76"
     inkscape:window-y="0"
     inkscape:window-maximized="0" />
  <metadata
     id="metadata5">
    <rdf:RDF>
      <cc:Work
         rdf:about="">
        <dc:format>image/svg+xml</dc:format>
        <dc:type
           rdf:resource="http://purl.org/dc/dcmitype/StillImage" />
        <dc:title></dc:title>
      </cc:Work>
    </rdf:RDF>
  </metadata>
  <g
     inkscape:label="Ebene 1"
     inkscape:groupmode="layer"
     id="layer1"
     transform="translate(-38.100002,-99.284531)">
    <g
       id="g847"
       transform="translate(-9.5238094e-8,18.898805)">
      <path
         style="fill:#fefefe;stroke-width:0.264583"
         d="M 38.100002,148.16666 V 80.433334 h 30.347707 c 17.174788,0 30.238603,0.0997 30.096353,0.229689 -0.138245,0.126328 -10.312135,6.751965 -22.608645,14.723637 -30.747299,19.93309 -31.054706,20.13475 -31.156338,20.43965 -0.120479,0.36144 8.104347,8.06116 12.900089,12.07649 18.010017,15.07928 34.501784,23.53286 47.095832,24.14104 l 2.77812,0.13416 29.76563,-19.865 29.76562,-19.86499 -7.32304,-5e-5 c -4.02767,-2e-5 -8.24906,-0.12884 -9.38085,-0.28626 -10.35951,-1.44088 -23.35791,-8.30235 -38.32944,-20.233001 -3.74634,-2.985417 -10.34913,-8.770355 -12.0243,-10.534912 l -0.911795,-0.960453 h 37.225855 37.22586 v 67.733326 67.73333 h -32.99135 -32.99135 l 17.1825,-11.52992 c 9.45037,-6.34146 22.28271,-14.94372 28.51631,-19.11614 6.23359,-4.17243 11.88025,-7.97318 12.54813,-8.44612 l 1.21432,-0.8599 h -7.42861 c -8.70974,0 -11.56939,-0.3657 -16.64757,-2.12895 -1.72521,-0.59903 -3.31686,-1.14548 -3.53699,-1.21433 -0.23015,-0.072 -6.58287,3.99934 -14.94896,9.58047 l -14.54872,9.70565 -4.36562,-0.15298 C 91.975429,191.26146 77.165806,184.65416 59.108374,171.00952 l -0.819752,-0.61943 -6.706329,4.32278 c -3.688481,2.37753 -6.748389,4.44896 -6.799796,4.60318 -0.109818,0.32945 7.518904,7.56781 12.171873,11.54904 16.920009,14.47728 33.665762,23.53011 45.96855,24.85081 0.50932,0.0547 -13.867478,0.11846 -31.94844,0.14175 l -32.874478,0.0423 z m 99.218748,15.875 29.76562,-19.84366 -7.44819,-4e-5 c -8.7312,-5e-5 -11.58598,-0.36471 -16.66714,-2.129 -1.72521,-0.59903 -3.31686,-1.14548 -3.53699,-1.21433 -0.23015,-0.072 -6.58287,3.99934 -14.94896,9.58047 l -14.54872,9.70565 -4.36562,-0.15297 C 91.975429,159.51146 77.165806,152.90416 59.108374,139.25952 l -0.819752,-0.61942 -6.706329,4.32277 c -3.688481,2.37753 -6.748411,4.44903 -6.799845,4.60333 -0.05143,0.1543 1.966084,2.21417 4.483373,4.5775 21.083752,19.79419 41.918464,31.5306 56.302929,31.71604 l 1.98437,0.0256 z"
         id="path851" />
      <path
         style="fill:#000000;stroke-width:0.264583"
         d="M 102.92292,215.7159 C 90.620132,214.3952 73.874379,205.34237 56.95437,190.86509 52.301401,186.88386 44.672679,179.6455 44.782497,179.31605 c 0.05141,-0.15422 3.111315,-2.22565 6.799796,-4.60318 l 6.706329,-4.32278 0.819752,0.61943 c 7.764196,5.86682 14.262603,10.01116 20.970129,13.37364 9.863611,4.94463 17.210825,7.0645 25.490247,7.35461 l 4.36562,0.15298 14.54872,-9.70565 c 8.36609,-5.58113 14.71881,-9.65246 14.94896,-9.58047 0.22013,0.0689 1.81178,0.6153 3.53699,1.21433 5.07957,1.76374 7.93697,2.12895 16.65649,2.12895 h 7.43753 l -1.17997,0.81947 c -0.64898,0.4507 -14.03055,9.43992 -29.73682,19.97604 l -28.55685,19.15657 -1.87023,-0.0423 c -1.02863,-0.0233 -2.28695,-0.0871 -2.79627,-0.14175 z m -1.5875,-32.23783 C 89.00071,181.52506 74.070988,173.37721 57.679168,159.6528 c -4.856853,-4.0665 -13.019971,-11.71685 -12.89672,-12.0866 0.05143,-0.1543 3.111364,-2.2258 6.799845,-4.60333 l 6.706329,-4.32277 0.819752,0.61942 c 7.764196,5.86682 14.262603,10.01116 20.970129,13.37364 9.863611,4.94463 17.210825,7.0645 25.490247,7.35462 l 4.36562,0.15297 14.54872,-9.70565 c 8.36609,-5.58113 14.71881,-9.65245 14.94896,-9.58047 0.22013,0.0689 1.81178,0.6153 3.53699,1.21433 5.08116,1.76429 7.93594,2.12895 16.66714,2.129 l 7.44819,4e-5 -29.76562,19.84366 -29.76563,19.84366 -1.98437,-0.0256 c -1.09141,-0.0141 -2.99641,-0.18582 -4.23333,-0.38167 z m 0,-31.75 C 89.00071,149.77507 74.070988,141.62721 57.679168,127.9028 52.883426,123.88747 44.6586,116.18775 44.779079,115.82631 c 0.10068,-0.30204 -0.061,-0.19591 31.523415,-20.693191 l 22.724369,-14.747393 2.014167,1.968475 c 2.87301,2.807823 6.7332,6.164394 11.01001,9.573588 14.96099,11.925921 27.96931,18.792951 38.32944,20.233911 1.13179,0.15742 5.35318,0.28624 9.38085,0.28626 l 7.32304,5e-5 -29.76562,19.84365 -29.76563,19.84366 -1.98437,-0.0256 c -1.09141,-0.0141 -2.99641,-0.18582 -4.23333,-0.38167 z"
         id="path849" />
    </g>
  </g>
</svg>
