<?xml version="1.0" encoding="UTF-8" standalone="no"?>
<svg
   version="1.1"
   id="Capa_1"
   x="0px"
   y="0px"
   viewBox="0 0 19.965578 20.000002"
   xml:space="preserve"
   sodipodi:docname="Foreality3_cube.svg"
   inkscape:version="1.1.1 (3bf5ae0d25, 2021-09-20)"
   inkscape:export-filename="/Users/patrick/Documents/_Privat/Geschäftsideen/Foreality/Logos/Icons/Foreality3_cube.png"
   inkscape:export-xdpi="250.698"
   inkscape:export-ydpi="250.698"
   width="19.965578"
   height="20.000002"
   xmlns:inkscape="http://www.inkscape.org/namespaces/inkscape"
   xmlns:sodipodi="http://sodipodi.sourceforge.net/DTD/sodipodi-0.dtd"
   xmlns:xlink="http://www.w3.org/1999/xlink"
   xmlns="http://www.w3.org/2000/svg"
   xmlns:svg="http://www.w3.org/2000/svg"
   xmlns:rdf="http://www.w3.org/1999/02/22-rdf-syntax-ns#"
   xmlns:cc="http://creativecommons.org/ns#"
   xmlns:dc="http://purl.org/dc/elements/1.1/"><metadata
   id="metadata886"><rdf:RDF><cc:Work
       rdf:about=""><dc:format>image/svg+xml</dc:format><dc:type
         rdf:resource="http://purl.org/dc/dcmitype/StillImage" /></cc:Work></rdf:RDF></metadata><defs
   id="defs884"><linearGradient
     id="linearGradient904"
     inkscape:collect="always"><stop
       id="stop900"
       offset="0"
       style="stop-color:#ebebeb;stop-opacity:1;" /><stop
       id="stop902"
       offset="1"
       style="stop-color:#ebebeb;stop-opacity:0;" /></linearGradient><linearGradient
     y2="165.06361"
     x2="383.9715"
     y1="117.39819"
     x1="263.92523"
     gradientUnits="userSpaceOnUse"
     id="linearGradient908"
     xlink:href="#linearGradient904"
     inkscape:collect="always" /><linearGradient
     gradientUnits="userSpaceOnUse"
     y2="152.9213"
     x2="423.397"
     y1="152.9213"
     x1="87.83448"
     id="linearGradient934"
     xlink:href="#linearGradient904"
     inkscape:collect="always" /></defs><sodipodi:namedview
   inkscape:document-rotation="0"
   pagecolor="#ffffff"
   bordercolor="#666666"
   borderopacity="1"
   objecttolerance="10"
   gridtolerance="10"
   guidetolerance="10"
   inkscape:pageopacity="0"
   inkscape:pageshadow="2"
   inkscape:window-width="1920"
   inkscape:window-height="1017"
   id="namedview882"
   showgrid="false"
   inkscape:zoom="18.125"
   inkscape:cx="17.075862"
   inkscape:cy="16.193103"
   inkscape:window-x="-8"
   inkscape:window-y="59"
   inkscape:window-maximized="1"
   inkscape:current-layer="Capa_1"
   inkscape:pagecheckerboard="0"
   fit-margin-top="0"
   fit-margin-left="0"
   fit-margin-right="0"
   fit-margin-bottom="0" />
























<g
   inkscape:export-ydpi="250.698"
   inkscape:export-xdpi="250.698"
   id="g964"
   transform="scale(0.03899527)"><path
     id="path839"
     d="M 15,91 C 6.709,91 0,84.291 0,76 V 15 C 0,6.709 6.709,0 15,0 h 61 c 8.291,0 15,6.709 15,15 0,8.291 -6.709,15 -15,15 H 30 v 46 c 0,8.291 -6.709,15 -15,15 z"
     style="fill:#f7b801;fill-opacity:1" /><path
     id="path841"
     d="m 497,91 c -8.291,0 -15,-6.709 -15,-15 V 30 h -45 c -8.291,0 -15,-6.709 -15,-15 0,-8.291 6.709,-15 15,-15 h 60 c 8.291,0 15,6.709 15,15 v 61 c 0,8.291 -6.709,15 -15,15 z"
     style="fill:#f7b801;fill-opacity:1" /><path
     id="path843"
     d="M 76,512 H 15 C 6.709,512 0,505.291 0,497 v -60 c 0,-8.291 6.709,-15 15,-15 8.291,0 15,6.709 15,15 v 45 h 46 c 8.291,0 15,6.709 15,15 0,8.291 -6.709,15 -15,15 z"
     style="fill:#f7b801;fill-opacity:1" /><path
     id="path845"
     d="m 497,512 h -60 c -8.291,0 -15,-6.709 -15,-15 0,-8.291 6.709,-15 15,-15 h 45 v -45 c 0,-8.291 6.709,-15 15,-15 8.291,0 15,6.709 15,15 v 60 c 0,8.291 -6.709,15 -15,15 z"
     style="fill:#f7b801;fill-opacity:1" /><g
     id="g851">
</g><g
     id="g853">
</g><g
     id="g855">
</g><g
     id="g857">
</g><g
     id="g859">
</g><g
     id="g861">
</g><g
     id="g863">
</g><g
     id="g865">
</g><g
     id="g867">
</g><g
     id="g869">
</g><g
     id="g871">
</g><g
     id="g873">
</g><g
     id="g875">
</g><g
     id="g877">
</g><g
     id="g879">
</g><g
     id="g845"
     transform="matrix(1.0000742,0,0,1.0000742,-9.9427586e-4,0.88276207)"><path
       d="m 489.965,120.063 c 0,-5.77 -3.31,-11.028 -8.512,-13.524 L 262.469,1.476 c -4.102,-1.967 -8.875,-1.967 -12.977,0 L 30.507,106.539 c -5.202,2.496 -8.511,7.755 -8.511,13.524 l -0.003,271.834 c 0,5.77 3.31,11.028 8.512,13.524 l 218.989,105.064 c 2.051,0.983 4.27,1.476 6.488,1.476 2.219,0 4.438,-0.492 6.488,-1.476 L 481.459,405.421 c 5.202,-2.496 8.512,-7.755 8.512,-13.524 z"
       fill="#4e6ba6"
       id="path833"
       style="fill:#28527b;fill-opacity:1"
       inkscape:export-xdpi="250.698"
       inkscape:export-ydpi="250.698" /><path
       d="m 489.965,120.063 c 0,-5.77 -3.31,-11.028 -8.512,-13.524 L 262.469,1.476 C 260.418,0.492 258.2,0 255.981,0 v 511.962 c 2.219,0 4.438,-0.492 6.488,-1.476 L 481.458,405.422 c 5.202,-2.496 8.512,-7.755 8.512,-13.524 z"
       fill="#28487a"
       id="path835"
       style="fill:#14293e;fill-opacity:1" /><path
       d="m 425.812,160.441 c 0,-2.27 -0.519,-4.457 -1.457,-6.432 L 87.654,153.914 c -0.967,1.999 -1.504,4.22 -1.504,6.526 l -0.002,191.081 c 0,5.769 3.31,11.028 8.512,13.524 l 154.833,74.285 c 2.051,0.983 4.27,1.476 6.488,1.476 2.219,0 4.438,-0.492 6.488,-1.476 l 154.834,-74.285 c 5.202,-2.496 8.512,-7.755 8.512,-13.524 z"
       fill="#8dc2eb"
       id="path837"
       style="fill:#8fa3cc;fill-opacity:1" /><path
       d="M 424.354,154.009 H 255.981 v 286.798 c 2.219,0 4.438,-0.492 6.488,-1.476 l 154.834,-74.285 c 5.202,-2.496 8.512,-7.755 8.512,-13.524 l -0.003,-191.081 c 0,-2.27 -0.52,-4.458 -1.458,-6.432 z"
       fill="#5e9ff6"
       id="path839-0"
       style="fill:#5776b2;fill-opacity:1" /><path
       d="M 417.3,146.916 262.469,72.632 c -4.102,-1.967 -8.875,-1.967 -12.977,0 L 94.661,146.916 c -3.122,1.498 -5.555,3.996 -7.007,6.998 l 168.328,80.812 168.374,-80.717 c -1.448,-3.044 -3.9,-5.579 -7.056,-7.093 z"
       fill="#ecf9fd"
       id="path841-3"
       style="fill:#ebebeb;fill-opacity:1" /><path
       d="M 417.3,146.916 262.469,72.632 c -2.051,-0.983 -4.27,-1.476 -6.488,-1.476 v 163.569 l 168.374,-80.717 c -1.447,-3.043 -3.899,-5.578 -7.055,-7.092 z"
       fill="#d9f3fc"
       id="path843-5"
       style="fill:url(#linearGradient908);fill-opacity:1" /><path
       style="fill:url(#linearGradient934);fill-opacity:1;stroke:#f2f2f2;stroke-width:8.34103;stroke-dasharray:0, 91.7513"
       d="m 189.7931,202.54078 c -35.68551,-17.18027 -73.22482,-35.25871 -83.42069,-40.1743 l -18.537927,-8.93743 3.531034,-3.06238 c 2.334588,-2.02473 30.151973,-15.82969 82.096553,-40.74211 71.89756,-34.481808 78.94012,-37.676036 82.97931,-37.636177 3.84402,0.03793 7.88938,1.733043 31.33793,13.131413 14.80828,7.198321 30.49931,14.797334 34.86897,16.886694 93.38576,44.65263 102.69827,49.44145 100.473,51.66671 -0.62303,0.62304 -32.67639,16.20405 -62.51438,30.388 -4.36966,2.07719 -14.69793,7.04079 -22.95173,11.03024 -8.25379,3.98944 -18.58207,8.94855 -22.95172,11.02023 -4.36966,2.07169 -19.19433,9.17855 -32.94373,15.79303 -13.7494,6.61449 -25.46802,11.99182 -26.04138,11.94963 -0.57336,-0.0422 -30.23972,-14.13328 -65.92524,-31.31355 z"
       id="path910"
       transform="scale(0.99992578)" /></g></g></svg>
